<svg xmlns="http://www.w3.org/2000/svg" viewBox="0 0 50 50" width="500px" height="500px">
  <path d="M 17.029297 -0.01171875 A 1.0001 1.0001 0 0 0 16.146484 1.5214844 L 17.703125 4.0644531 C 17.240138 4.3490626 16.800339 4.6649783 16.375 5 L 9 5 C 6.2504839 5 4 7.2504839 4 10 L 4 39 C 4 41.749516 6.2504839 44 9 44 L 14.095703 44 L 13.318359 45.652344 C 12.717947 46.929318 13.009349 48.532263 14.207031 49.408203 C 14.74971 49.805392 15.383169 50 15.998047 50 C 17.126322 50 18.207238 49.355075 18.714844 48.277344 L 20.728516 44 L 29.271484 44 L 31.285156 48.277344 C 31.792667 49.356361 32.874566 50 34.001953 50 C 34.617962 50 35.249687 49.802952 35.791016 49.408203 A 1.0001 1.0001 0 0 0 35.792969 49.408203 C 36.989871 48.532834 37.283262 46.930241 36.681641 45.652344 L 35.904297 44 L 40 44 L 40 49 A 1.0001 1.0001 0 0 0 41 50 L 43 50 C 45.749516 50 48 47.749516 48 45 L 48 18 C 48 15.250484 45.749516 13 43 13 L 38.646484 13 C 37.819734 9.2286255 35.485299 6.024454 32.296875 4.0644531 L 33.853516 1.5214844 A 1.0001 1.0001 0 0 0 33.041016 -0.01171875 A 1.0001 1.0001 0 0 0 32.146484 0.47851562 L 30.513672 3.1464844 C 28.820141 2.4161534 26.960303 2 25 2 C 23.039697 2 21.179859 2.4161534 19.486328 3.1464844 L 17.853516 0.47851562 A 1.0001 1.0001 0 0 0 17.029297 -0.01171875 z M 25 4 C 30.599919 4 35.272352 7.8249687 36.603516 13 L 13.396484 13 C 14.727648 7.8249687 19.400081 4 25 4 z M 9 7 L 14.302734 7 C 12.872298 8.7025287 11.846714 10.750182 11.353516 13 L 9 13 C 7.3315161 13 6 11.668484 6 10 C 6 8.3315161 7.3315161 7 9 7 z M 19.5 8 A 1.5 1.5 0 0 0 19.5 11 A 1.5 1.5 0 0 0 19.5 8 z M 30.5 8 A 1.5 1.5 0 0 0 30.5 11 A 1.5 1.5 0 0 0 30.5 8 z M 6 13.970703 C 6.8390569 14.607252 7.8720637 15 9 15 L 43 15 C 44.668484 15 46 16.331516 46 18 C 46 19.668484 44.668484 21 43 21 L 41 21 A 1.0001 1.0001 0 0 0 40 22 L 40 42 L 34.962891 42 L 28.433594 28.126953 C 28.817229 27.476435 29 26.734554 29 26 C 29 25.027778 28.681319 24.042118 27.998047 23.273438 C 27.506573 22.720529 26.813195 22.313228 26 22.123047 L 26 20 A 1.0001 1.0001 0 0 0 24.984375 18.986328 A 1.0001 1.0001 0 0 0 24 20 L 24 22.123047 C 23.186805 22.313228 22.493427 22.720529 22.001953 23.273438 C 21.318681 24.042119 21 25.027778 21 26 C 21 26.734554 21.182771 27.476435 21.566406 28.126953 L 15.037109 42 L 9 42 C 7.3315161 42 6 40.668484 6 39 L 6 13.970703 z M 46 21.890625 L 46 45 C 46 46.668484 44.668484 48 43 48 L 42 48 L 42 23 L 43 23 C 44.144984 23 45.154577 22.544678 46 21.890625 z M 24.902344 24.007812 A 1.0001 1.0001 0 0 0 25.101562 24.007812 C 25.784418 24.03086 26.201113 24.263117 26.501953 24.601562 C 26.81868 24.957881 27 25.472222 27 26 C 27 26.527778 26.81868 27.042118 26.501953 27.398438 C 26.185226 27.754756 25.749999 28 25 28 C 24.250001 28 23.814774 27.754756 23.498047 27.398438 C 23.18132 27.042119 23 26.527778 23 26 C 23 25.472222 23.18132 24.957882 23.498047 24.601562 C 23.799494 24.262434 24.216997 24.030036 24.902344 24.007812 z M 23.107422 29.548828 C 23.65953 29.82697 24.294688 30 25 30 C 25.705312 30 26.34047 29.82697 26.892578 29.548828 L 34.871094 46.503906 C 35.091472 46.972009 34.970424 47.530338 34.611328 47.792969 C 34.407193 47.941269 34.203365 48 34.001953 48 C 33.62734 48 33.270193 47.796764 33.095703 47.425781 L 27.533203 35.605469 C 26.554759 33.524766 23.445241 33.524766 22.466797 35.605469 L 16.904297 47.425781 C 16.729607 47.794973 16.371198 48 15.998047 48 C 15.792925 48 15.59004 47.943733 15.386719 47.794922 A 1.0001 1.0001 0 0 0 15.386719 47.792969 C 15.028401 47.530909 14.909318 46.970932 15.128906 46.503906 L 15.126953 46.503906 L 23.107422 29.548828 z M 25 35.951172 C 25.281939 35.951172 25.563878 36.119383 25.722656 36.457031 L 28.332031 42 L 21.667969 42 L 24.277344 36.457031 C 24.436122 36.119383 24.718061 35.951172 25 35.951172 z" fill="#FFFFFF" />
</svg>