<svg xmlns="http://www.w3.org/2000/svg" viewBox="0 0 50 50" width="500px" height="500px">
  <path d="M 6 4 C 4.9069372 4 4 4.9069372 4 6 L 4 44 C 4 45.093063 4.9069372 46 6 46 L 44 46 C 45.093063 46 46 45.093063 46 44 L 46 6 C 46 4.9069372 45.093063 4 44 4 L 6 4 z M 6 6 L 44 6 L 44 44 L 6 44 L 6 6 z M 19.585938 14 C 18.145937 14 16.992 14.160016 16 14.416016 L 16 36 L 18.464844 36 L 18.464844 26.830078 C 18.816844 26.861078 19.136734 26.861328 19.552734 26.861328 C 21.472734 26.861328 23.488625 26.062891 24.640625 24.462891 C 25.473625 23.374891 25.951172 22.030875 25.951172 20.046875 C 25.951172 18.159875 25.407766 16.590406 24.384766 15.566406 C 23.264766 14.478406 21.568938 14 19.585938 14 z M 19.976562 15.640625 C 22.727562 15.640625 23.623047 17.622078 23.623047 19.830078 C 23.623047 22.870078 21.990797 24.470703 19.591797 24.470703 C 19.175797 24.470703 18.887609 24.439203 18.599609 24.408203 L 18.599609 15.800781 C 18.919609 15.703781 19.400562 15.640625 19.976562 15.640625 z M 34.488281 19.75 C 33.051281 19.75 32.130141 20.402 31.619141 21.875 L 31.494141 22.25 L 31.494141 20 L 29 20 L 29 36 L 31.494141 36 L 31.523438 26.75 C 31.523437 26.206 31.555141 25.757797 31.619141 25.341797 C 31.874141 23.549797 32.924281 22.09375 34.488281 22.09375 C 34.681281 22.09375 34.84 22.093 35 22.125 L 35 19.78125 C 34.84 19.74925 34.680281 19.75 34.488281 19.75 z" fill="#000000" />
</svg>