<svg xmlns="http://www.w3.org/2000/svg" viewBox="0 0 50 50" width="500px" height="500px">
  <path d="M 6 4 C 4.9069372 4 4 4.9069372 4 6 L 4 44 C 4 45.093063 4.9069372 46 6 46 L 44 46 C 45.093063 46 46 45.093063 46 44 L 46 6 C 46 4.9069372 45.093063 4 44 4 L 6 4 z M 6 6 L 44 6 L 44 44 L 6 44 L 6 6 z M 19.927734 14 L 15 36 L 17.398438 36 L 18.824219 29.566406 L 23.625 29.566406 L 25.015625 36 L 27.447266 36 L 22.648438 14 L 19.927734 14 z M 32.734375 14 C 31.910375 14 31.25 14.6255 31.25 15.5625 C 31.25 16.4995 31.877172 17.125 32.701172 17.125 L 32.734375 17.125 C 33.657375 17.125 34.25 16.4995 34.25 15.5625 C 34.25 14.6255 33.657375 14 32.734375 14 z M 21.226562 16.439453 L 21.322266 16.439453 C 21.578266 18.039453 21.8675 19.831187 22.1875 21.367188 L 23.322266 27.001953 L 19.228516 27 L 20.330078 21.400391 C 20.650078 19.927391 20.969562 18.071453 21.226562 16.439453 z M 31.5 19 L 31.5 36 L 34 36 L 34 19 L 31.5 19 z" fill="#000000" />
</svg>